<svg xmlns="http://www.w3.org/2000/svg" width="600" height="95" fill="none" viewBox="0 0 600 95"><path fill="#00285e" d="M17.586 19.507 9.6 57.287l5.3 2.775h.844l-1.766 8.404H11.29L0 62.684l9.139-43.177z"/><path fill="#1f1f1f" d="M37.94 14.286h15.359l-.538 2.775H37.325zm-2.074 5.243c1.152-.309 2.304-.386 3.38-.386H52.3l-.614 2.776H38.631c-.845 0-1.766.154-2.688.385-.845.232-1.766.54-2.61 1.003l-.846-2.468c1.075-.616 2.227-1.002 3.38-1.31"/><path fill="#00285e" d="M45.984 45.027c-1.076-1.465-2.765-2.39-4.839-2.544l-6.374 2.621L31.93 58.52c.46.308.922.617 1.46.848q1.381.694 3.224.694c2.381 0 4.839-1.002 6.759-2.621 1.92-1.542 3.379-3.778 3.84-6.246.537-2.39 0-4.626-1.23-6.168M17.415 60.062c1.612 0 3.225-.694 4.454-1.696s2.15-2.39 2.534-3.932l3.072-14.727 13.823-5.782h.845c4.761 0 8.6 1.927 11.058 5.088s3.456 7.48 2.458 12.182c-.999 4.78-3.84 9.098-7.603 12.26-3.763 3.084-8.524 5.011-13.286 5.011-2.227 0-4.377-.385-6.22-1.31-1.152-.463-2.227-1.157-3.149-1.928-2.918 2.005-6.297 3.238-9.753 3.238h-1.766l1.843-8.404zm61.442-40.555-7.986 37.78 5.298 2.775h.845l-1.766 8.404H72.56l-11.289-5.782 9.139-43.177z"/><path fill="#cf3528" d="M97.522 19.529a13.2 13.2 0 0 1 3.378-.463h13.056l-.615 2.853h-13.055c-.845 0-1.766.077-2.688.308-.844.232-1.766.617-2.61 1.003l-.846-2.468c1.076-.54 2.228-.925 3.38-1.233"/><path fill="#00285e" d="M107.255 45.027c-1.075-1.465-2.765-2.39-4.838-2.544l-6.374 2.621L93.2 58.52c.46.308.922.617 1.46.848q1.38.694 3.225.694c2.38 0 4.838-1.002 6.758-2.621 1.919-1.542 3.379-3.778 3.839-6.246.538-2.39 0-4.626-1.228-6.168M78.687 60.062c1.612 0 3.225-.694 4.454-1.696s2.15-2.39 2.534-3.932l3.072-14.727 13.823-5.782h.845c4.761 0 8.601 1.927 11.058 5.088 2.458 3.162 3.456 7.48 2.458 12.182-.998 4.78-3.84 9.098-7.603 12.26-3.763 3.084-8.524 5.011-13.285 5.011-2.228 0-4.378-.385-6.22-1.31-1.153-.463-2.228-1.157-3.15-1.928-2.918 2.005-6.297 3.238-9.752 3.238h-1.767l1.843-8.404z"/><path fill="#cf3528" d="M130.655 91.3a12.3 12.3 0 0 1 3.379-.463h13.055l-.614 2.852H133.42c-.845 0-1.767.077-2.688.309-.845.231-1.767.617-2.611 1.002l-.845-2.467c1.075-.54 2.227-.925 3.379-1.234"/><path fill="#00285e" d="m129.607 78.49-3.225 2.698-.922-1.234c-.153-.154-.307-.308-.537-.385s-.461-.154-.691-.154c-.615 0-1.152.23-1.536.54a2.68 2.68 0 0 0-.922 1.464c-.076.54 0 1.002.308 1.388.23.308.691.54 1.228.54h5.299l-.845 3.778h-12.21l.768-3.778h1.689a5.5 5.5 0 0 1 .077-1.928c.307-1.619 1.229-3.007 2.534-4.086 1.229-1.08 2.842-1.697 4.378-1.697q1.152 0 2.073.463c.615.308 1.229.694 1.613 1.234zm2.151-19.199a14.6 14.6 0 0 0-.307 4.01c.076 1.31.307 2.62.691 3.777l-8.141 4.24a18.5 18.5 0 0 1-1.152-5.782c-.153-2.081.077-4.163.461-6.245l8.448-39.784h8.447z"/><path fill="#cf3528" d="M163.367 16.775a13.2 13.2 0 0 1 3.379-.462h13.055l-.614 2.852h-13.055c-.845 0-1.766.077-2.688.309-.845.23-1.766.616-2.611 1.002l-.845-2.467c1.075-.54 2.227-.925 3.379-1.234"/><path fill="#00285e" d="M203.516 84.812c-2.227 0-3.687-1.928-3.226-4.164.538-2.236 2.765-4.086 4.992-4.086 2.304 0 3.686 1.85 3.225 4.086s-2.688 4.164-4.991 4.164m-8.909 0c-2.304 0-3.763-1.928-3.225-4.164.461-2.236 2.688-4.086 4.992-4.086 2.227 0 3.686 1.85 3.225 4.086-.538 2.236-2.765 4.164-4.992 4.164m-16.741-51.658c-2.227 0-3.686-1.85-3.225-4.087.537-2.313 2.764-4.163 4.991-4.163 2.304 0 3.686 1.85 3.226 4.163-.461 2.236-2.688 4.087-4.992 4.087m16.05 15.034-5.836 27.294-1.459 1.311c-2.458 2.082-5.222 3.624-8.064 4.78-2.918 1.08-5.836 1.62-8.678 1.62-5.99 0-10.905-2.468-14.053-6.4-3.072-3.932-4.378-9.406-3.072-15.42l3.072-14.572h8.447l-3.072 14.572c-.844 3.7 0 7.016 1.844 9.483 1.919 2.39 4.914 3.855 8.601 3.855a14.4 14.4 0 0 0 5.375-1.002c1.152-.463 2.304-1.002 3.456-1.773l4.992-23.748c.844-3.932 3.148-7.478 6.297-10.023 3.072-2.621 6.988-4.24 10.905-4.24 2.227 0 4.377.462 6.297 1.388a12.7 12.7 0 0 1 4.838 3.7l.922 1.234-2.919 14.032a4.95 4.95 0 0 0 .768 4.087c.845 1.002 2.151 1.696 3.763 1.696l-1.843 8.404c-3.916 0-7.065-1.542-9.138-4.163-1.997-2.545-2.842-6.091-1.997-10.024l2.15-10.331c-.384-.309-.921-.617-1.382-.848-.922-.463-2.074-.694-3.225-.694-1.613 0-3.226.694-4.455 1.696-1.228 1.08-2.227 2.467-2.534 4.086"/><path fill="#ffe550" d="M240.223 73.4a12.3 12.3 0 0 1 3.379-.462h13.055l-.614 2.853h-13.055c-.845 0-1.767.077-2.688.308-.845.231-1.766.617-2.611 1.002l-.845-2.467c1.075-.54 2.227-.925 3.379-1.233"/><path fill="#00285e" d="M252.355 27.602c-2.227 0-3.686-1.927-3.225-4.163s2.765-4.087 4.992-4.087 3.686 1.85 3.225 4.087-2.688 4.163-4.992 4.163m-8.908 0c-2.304 0-3.763-1.927-3.302-4.163.538-2.236 2.765-4.087 4.992-4.087 2.304 0 3.763 1.85 3.225 4.087-.461 2.236-2.688 4.163-4.915 4.163m-8.063 29.839c1.075 1.465 2.764 2.39 4.838 2.544l6.374-2.699 2.764-13.338a6 6 0 0 0-1.382-.848c-.921-.463-2.073-.694-3.225-.694-2.458 0-4.838 1.002-6.758 2.621-1.92 1.542-3.379 3.778-3.917 6.168-.461 2.468 0 4.704 1.306 6.246m-20.889 11.025 1.844-8.404h9.906c-.998-2.621-1.229-5.628-.537-8.867.998-4.703 3.839-9.02 7.602-12.182 3.763-3.16 8.448-5.088 13.209-5.088 2.304 0 4.377.462 6.297 1.388a12.7 12.7 0 0 1 4.838 3.7l.922 1.234-2.995 14.187c-.23 1.542.077 2.93.845 3.932.844 1.002 2.15 1.696 3.763 1.696l-1.843 8.404c-3.763 0-6.912-1.465-8.909-3.855l-9.292 3.855z"/><path fill="#cf3528" d="M281.736 13.878c-.998.848-2.304 1.388-3.609 1.388s-2.381-.54-3.072-1.388c-.614-.848-.921-2.081-.614-3.392l.768-3.624h2.764l-.768 3.7c-.076.463 0 1.003.308 1.312.23.385.691.54 1.228.54.538 0 1.075-.155 1.459-.54.384-.309.692-.849.845-1.311l1.229-5.86h2.918l-1.305 6.168a1.14 1.14 0 0 0 .307 1.003c.23.385.691.616 1.228.616.538 0 .999-.23 1.46-.616.384-.309.691-.771.844-1.311v-.54l-.077-.462-1.228-3.316 2.764-1.388 1.152 3.316.231 1.156c.076.386 0 .771-.077 1.234-.231 1.31-1.075 2.467-2.074 3.315s-2.303 1.388-3.609 1.388c-1.305 0-2.381-.54-3.072-1.388M276.668.386C277.82.154 278.972 0 280.124 0h13.055l-.615 2.853h-13.055c-.921 0-1.766.077-2.688.308-.921.231-1.766.54-2.611 1.002l-.921-2.467c1.152-.54 2.227-1.002 3.379-1.31"/><path fill="#00285e" d="M281.483 33.23c-2.304 0-3.763-1.927-3.225-4.163.46-2.236 2.687-4.086 4.915-4.086 2.303 0 3.763 1.85 3.225 4.086-.461 2.236-2.688 4.164-4.915 4.164m-8.985 0c-2.227 0-3.686-1.927-3.225-4.163s2.687-4.086 4.991-4.086c2.227 0 3.687 1.85 3.226 4.086s-2.765 4.164-4.992 4.164m-.768 32.075c-1.229.771-2.534 1.388-3.916 1.927-2.228.849-4.455 1.311-6.682 1.311h-2.764l1.766-8.481h2.765c1.152 0 2.303-.231 3.379-.617.614-.231 1.152-.54 1.689-.848l3.917-18.35h8.37l-2.918 14.032a4.95 4.95 0 0 0 .768 4.087c.845 1.002 2.15 1.696 3.763 1.696l-1.843 8.404c-3.379 0-6.22-1.156-8.294-3.161"/><path fill="#1f1f1f" d="M318.474 20.366c.538 0 .999-.232 1.459-.54.384-.385.692-.848.845-1.388.077-.54 0-1.002-.307-1.31-.23-.386-.691-.617-1.229-.617-.537 0-.998.231-1.459.617a2.6 2.6 0 0 0-.845 1.31c-.076.54 0 1.003.308 1.388.23.308.691.54 1.228.54m-.614 2.853h-7.219c-.921 0-1.766.077-2.688.308-.921.231-1.766.617-2.611 1.002l-.921-2.467a20 20 0 0 1 3.379-1.234 13.3 13.3 0 0 1 3.456-.462h2.918c-.154-.617-.154-1.234 0-1.928.23-1.31 1.075-2.467 2.073-3.315.999-.848 2.304-1.388 3.61-1.388 1.305 0 2.38.54 3.071 1.388s.922 2.005.692 3.315c-.308 1.311-1.076 2.468-2.074 3.393h-.077a5.62 5.62 0 0 1-3.609 1.31z"/><path fill="#00285e" d="M312.142 45.027c-1.075-1.465-2.765-2.39-4.838-2.544l-6.374 2.621-2.842 13.416c.461.308.922.617 1.459.848q1.383.694 3.226.694c2.38 0 4.838-1.002 6.758-2.621 1.92-1.542 3.379-3.778 3.839-6.246.538-2.39 0-4.626-1.228-6.168m-28.568 15.035c1.613 0 3.225-.694 4.454-1.696s2.15-2.39 2.534-3.932l3.072-14.727 13.823-5.782h.845c4.761 0 8.601 1.927 11.058 5.088 2.458 3.162 3.456 7.48 2.458 12.182l-.614 3.084c-.384 1.542 0 3.007.844 4.087.768 1.002 2.074 1.696 3.686 1.696l-1.766 8.404c-3.916 0-7.142-1.542-9.215-4.163-.154-.232-.384-.54-.538-.848-3.84 3.16-8.524 5.011-13.285 5.011-2.227 0-4.378-.385-6.221-1.31-1.152-.463-2.227-1.157-3.148-1.928-2.919 2.005-6.298 3.238-9.753 3.238h-1.767l1.843-8.404z"/><path fill="#cf3528" d="M346.091 9.428c.538 0 .999-.154 1.459-.54.384-.308.691-.847.845-1.31.077-.54 0-1.08-.307-1.388-.231-.385-.691-.54-1.229-.54-.537 0-.998.155-1.459.54-.384.309-.691.848-.845 1.388-.077.463 0 1.002.307 1.31.231.386.692.54 1.229.54m2.995 1.465c-.998.848-2.304 1.388-3.609 1.388s-2.381-.54-3.072-1.388c-.614-.848-.922-2.081-.614-3.392.23-1.31.998-2.467 2.073-3.315.998-.849 2.304-1.388 3.61-1.388 1.305 0 2.38.54 3.071 1.388.615.848.922 2.081.615 3.315-.231 1.31-.999 2.544-2.074 3.392"/><path fill="#4888ff" d="M359.541 73.4a12.3 12.3 0 0 1 3.379-.462h13.055l-.615 2.853h-13.055c-.845 0-1.766.077-2.688.308-.844.231-1.766.617-2.611 1.002l-.844-2.467c1.075-.54 2.227-.925 3.379-1.233"/><path fill="#00285e" d="M348.49 68.466h-.077c-4.684 0-8.524-1.927-10.982-5.011-.307.308-.614.616-.998.848-3.072 2.621-6.988 4.163-10.905 4.163h-1.689l1.766-8.404h1.689c1.613 0 3.226-.694 4.455-1.696 1.305-1.08 2.227-2.544 2.611-4.087l7.295-34.85h8.448l-6.682 31.766c-.537 2.468 0 4.704 1.229 6.246 1.229 1.619 3.225 2.621 5.606 2.621 1.152 0 2.458-.231 3.533-.694.614-.231 1.228-.54 1.843-.848l8.217-39.09h8.447l-9.062 42.79-1.459 1.235q-2.995 2.428-6.45 3.7c-2.227.849-4.608 1.311-6.835 1.311m55.622-48.959-7.987 37.78 5.299 2.775h.845l-1.767 8.404h-2.687l-11.289-5.782 9.138-43.177z"/><path fill="#4888ff" d="M416.476 14.022a13.2 13.2 0 0 1 3.379-.463h13.056l-.615 2.853h-13.055c-.845 0-1.766.077-2.688.308-.845.231-1.766.617-2.611 1.002l-.845-2.467c1.076-.54 2.227-.925 3.379-1.234"/><path fill="#00285e" d="M419.608 33.154c-2.228 0-3.687-1.85-3.226-4.087.461-2.313 2.688-4.163 4.992-4.163 2.227 0 3.686 1.85 3.225 4.163-.537 2.236-2.764 4.087-4.991 4.087m-5.837 32.15c-1.229.772-2.534 1.389-3.916 1.928-2.227.849-4.455 1.311-6.682 1.311h-2.764l1.766-8.481h2.765c1.152 0 2.304-.231 3.379-.617.614-.231 1.152-.54 1.689-.848l3.917-18.35h8.37l-2.918 14.032a4.95 4.95 0 0 0 .768 4.087c.845 1.002 2.15 1.696 3.763 1.696l-1.843 8.404c-3.379 0-6.22-1.156-8.294-3.161"/><path fill="#cf3528" d="M444.485 10.805c.538 0 .998-.154 1.459-.54.384-.308.691-.848.845-1.31.077-.54 0-1.08-.307-1.388-.231-.386-.692-.54-1.229-.54s-.998.154-1.459.54c-.384.308-.691.848-.845 1.388-.077.462 0 1.002.307 1.31.231.386.691.54 1.229.54m2.995 1.465c-.998.848-2.304 1.388-3.609 1.388s-2.381-.54-3.072-1.388c-.615-.848-.922-2.082-.615-3.392.231-1.311.999-2.468 2.074-3.316.998-.848 2.304-1.388 3.609-1.388s2.381.54 3.072 1.388c.614.848.922 2.082.614 3.316-.23 1.31-.998 2.544-2.073 3.392"/><path fill="#00285e" d="M434.677 64.38c-3.149 2.544-6.989 4.086-10.905 4.086h-1.69l1.767-8.404h1.766c1.613 0 3.149-.694 4.454-1.696 1.229-1.002 2.15-2.467 2.458-4.01l7.449-34.85h8.37l-7.295 34.773a4.95 4.95 0 0 0 .768 4.087c.845 1.002 2.15 1.696 3.763 1.696l-1.843 8.404c-3.84 0-7.066-1.542-9.062-4.086m26.197-43.474a13.2 13.2 0 0 1 3.379-.463h13.055l-.615 2.853h-13.055c-.845 0-1.766.077-2.688.308-.844.231-1.766.617-2.611 1.002l-.844-2.467c1.075-.54 2.227-.925 3.379-1.233m9.837 38.924c2.765-.462 5.376-1.773 7.603-3.623 2.765-2.313 4.915-5.551 5.683-9.098.153-.694.23-1.234.23-1.696.077-.154.077-.309.077-.463l-1.92-2.082-16.281 4.164zm-26.955 8.636 1.843-8.404h15.513l-5.376-14.726 3.072-4.703 27.646-7.094 6.297 6.708.154 1.31c0 .849 0 1.774-.077 2.7-.077 1.002-.23 1.927-.384 2.852-1.075 4.857-3.609 9.33-7.142 12.953h10.828l-1.766 8.404z"/><path fill="#cf3528" d="M521.28 20.443c.538 0 .999-.154 1.459-.54.384-.308.691-.848.845-1.31.077-.54 0-1.08-.307-1.388-.231-.386-.691-.54-1.229-.54-.537 0-.998.154-1.459.54-.384.308-.691.848-.845 1.388-.077.462 0 1.002.307 1.31.231.386.692.54 1.229.54m2.995 1.465c-.998.848-2.304 1.388-3.609 1.388s-2.381-.54-3.072-1.388c-.614-.848-.922-2.082-.614-3.393.23-1.31.998-2.467 2.073-3.315.998-.848 2.304-1.388 3.609-1.388s2.381.54 3.072 1.388c.615.848.922 2.082.615 3.315-.231 1.311-.999 2.545-2.074 3.393"/><path fill="#00285e" d="M496.069 60.062h25.65c-.999-1.388-1.997-2.776-2.765-4.318-2.227-4.009-3.686-8.48-4.377-13.338h-7.68l1.767-8.481h14.053l.23 3.16c.231 5.012 1.536 9.561 3.763 13.57s5.299 7.402 9.216 9.947l-3.763 7.864h-37.86zm14.438 24.75c-2.227 0-3.687-1.928-3.226-4.164.538-2.236 2.765-4.086 4.992-4.086 2.304 0 3.686 1.85 3.225 4.086s-2.688 4.164-4.991 4.164m42.124-65.305h8.448l-8.448 39.784a14.6 14.6 0 0 0-.307 4.01c.077 1.31.307 2.62.768 3.777l-8.217 4.24c-.615-1.85-1.075-3.777-1.152-5.782a28.5 28.5 0 0 1 .461-6.245z"/><path fill="#ffaa48" d="M583.566 20.906a13.2 13.2 0 0 1 3.379-.463H600l-.614 2.853H586.33c-.844 0-1.766.077-2.687.308-.845.231-1.767.617-2.611 1.002l-.845-2.467c1.075-.54 2.227-.925 3.379-1.233"/><path fill="#00285e" d="m597.342 40.247-4.224 20.046c-.921 4.472-2.764 8.867-5.298 12.953-2.611 4.087-5.837 7.865-9.677 11.026l-4.684-6.014c2.918-2.39 5.376-5.166 7.219-8.25.384-.462.614-1.002.921-1.542h-3.609c-4.761 0-8.678-1.927-11.136-5.011-2.457-3.162-3.455-7.48-2.457-12.26 1.075-4.703 3.917-9.02 7.68-12.182 3.763-3.16 8.447-5.088 13.208-5.088 2.304 0 4.378.462 6.298 1.388a12.74 12.74 0 0 1 4.838 3.7zm-17.586 19.815h4.992l3.379-16.114a6 6 0 0 0-1.383-.848c-.921-.463-2.073-.694-3.225-.694-2.457 0-4.838 1.002-6.758 2.621-1.92 1.542-3.379 3.778-3.917 6.168-.46 2.468 0 4.704 1.306 6.246 1.229 1.619 3.225 2.621 5.606 2.621"/></svg>