<svg xmlns="http://www.w3.org/2000/svg" width="330" height="53" fill="none" viewBox="0 0 330 53"><path fill="#00285e" d="M9.672 10.685 5.28 31.38l2.914 1.52h.465l-.972 4.604H6.21L0 34.336l5.026-23.65z"/><path fill="#1f1f1f" d="M20.867 7.825h8.447l-.295 1.52h-8.49zm-1.14 2.872c.633-.169 1.267-.21 1.858-.21h7.18l-.338 1.52h-7.18c-.465 0-.971.084-1.478.21-.465.127-.972.296-1.436.55l-.465-1.352c.591-.338 1.225-.549 1.859-.718"/><path fill="#00285e" d="M25.29 24.665c-.59-.803-1.52-1.31-2.66-1.394l-3.506 1.436-1.562 7.349c.253.169.506.338.802.464q.76.38 1.774.38c1.31 0 2.66-.549 3.717-1.436 1.056-.844 1.858-2.07 2.112-3.42.295-1.31 0-2.535-.676-3.38M9.58 32.9c.887 0 1.774-.38 2.45-.929a4.1 4.1 0 0 0 1.393-2.154l1.69-8.066 7.602-3.168h.465c2.619 0 4.73 1.056 6.082 2.788s1.9 4.096 1.352 6.673c-.55 2.618-2.112 4.983-4.182 6.715-2.07 1.689-4.688 2.745-7.307 2.745-1.225 0-2.407-.211-3.42-.718a6.6 6.6 0 0 1-1.733-1.056c-1.605 1.098-3.463 1.774-5.364 1.774h-.971L8.649 32.9zm33.792-22.215L38.979 31.38l2.914 1.52h.465l-.972 4.604h-1.478l-6.209-3.168 5.026-23.65z"/><path fill="#cf3528" d="M53.637 10.697a7.3 7.3 0 0 1 1.858-.253h7.18l-.337 1.563h-7.18a6.2 6.2 0 0 0-1.479.168c-.465.127-.971.338-1.436.55l-.465-1.352c.592-.296 1.225-.507 1.859-.676"/><path fill="#00285e" d="M58.99 24.665c-.591-.803-1.52-1.31-2.66-1.394l-3.507 1.436-1.562 7.349c.253.169.506.338.802.464q.76.38 1.774.38c1.31 0 2.661-.549 3.717-1.436 1.056-.844 1.858-2.07 2.112-3.42.296-1.31 0-2.535-.676-3.38M43.278 32.9c.887 0 1.774-.38 2.45-.929a4.1 4.1 0 0 0 1.393-2.154l1.69-8.066 7.603-3.168h.464c2.619 0 4.73 1.056 6.082 2.788s1.901 4.096 1.352 6.673c-.55 2.618-2.112 4.983-4.181 6.715-2.07 1.689-4.689 2.745-7.308 2.745-1.224 0-2.407-.211-3.42-.718a6.6 6.6 0 0 1-1.733-1.056c-1.605 1.098-3.463 1.774-5.364 1.774h-.971l1.014-4.604z"/><path fill="#cf3528" d="M71.86 50.011a6.8 6.8 0 0 1 1.859-.253h7.18l-.338 1.563h-7.18c-.465 0-.972.042-1.478.168-.465.127-.972.338-1.437.55l-.464-1.352c.591-.296 1.225-.507 1.858-.676"/><path fill="#00285e" d="m71.284 42.994-1.774 1.478-.507-.675c-.084-.085-.169-.17-.295-.211a1.2 1.2 0 0 0-.38-.085 1.36 1.36 0 0 0-.845.296 1.47 1.47 0 0 0-.507.802c-.042.296 0 .55.169.76.127.17.38.296.676.296h2.914l-.465 2.07h-6.715l.422-2.07h.93a3 3 0 0 1 .041-1.056c.17-.887.676-1.647 1.394-2.238.676-.591 1.563-.93 2.408-.93q.633 0 1.14.254c.338.169.676.38.887.676zm1.183-10.516a8 8 0 0 0-.17 2.196 8.3 8.3 0 0 0 .38 2.07l-4.476 2.323a10 10 0 0 1-.634-3.168c-.084-1.14.042-2.28.254-3.421l4.646-21.793h4.646z"/><path fill="#cf3528" d="M89.852 9.189a7.3 7.3 0 0 1 1.858-.253h7.18l-.337 1.562h-7.18c-.465 0-.972.042-1.479.17-.464.126-.971.337-1.436.548l-.464-1.351c.59-.296 1.225-.507 1.858-.676"/><path fill="#00285e" d="M111.934 46.458c-1.225 0-2.028-1.056-1.774-2.281.295-1.225 1.52-2.239 2.745-2.239 1.267 0 2.027 1.014 1.774 2.239s-1.478 2.28-2.745 2.28m-4.9 0c-1.267 0-2.07-1.056-1.774-2.281.253-1.225 1.478-2.239 2.745-2.239 1.225 0 2.028 1.014 1.774 2.239-.295 1.225-1.52 2.28-2.745 2.28M97.826 18.16c-1.225 0-2.027-1.014-1.774-2.239.296-1.267 1.52-2.28 2.746-2.28 1.267 0 2.027 1.013 1.774 2.28-.254 1.225-1.479 2.239-2.746 2.239m8.828 8.235-3.21 14.951-.803.718c-1.351 1.14-2.872 1.985-4.435 2.619-1.605.591-3.21.887-4.772.887-3.295 0-5.998-1.352-7.73-3.506-1.69-2.154-2.407-5.152-1.69-8.447l1.69-7.982h4.646l-1.69 7.982c-.464 2.028 0 3.844 1.014 5.195 1.056 1.31 2.704 2.112 4.731 2.112a8 8 0 0 0 2.957-.55c.633-.253 1.267-.548 1.9-.97l2.746-13.009c.464-2.154 1.732-4.096 3.463-5.49 1.69-1.436 3.844-2.323 5.998-2.323 1.225 0 2.407.253 3.463.76a7 7 0 0 1 2.661 2.027l.507.676-1.605 7.687c-.211.845 0 1.647.423 2.238.464.55 1.182.93 2.069.93l-1.013 4.603c-2.155 0-3.886-.845-5.027-2.28-1.098-1.394-1.563-3.337-1.098-5.491l1.183-5.66a4.6 4.6 0 0 0-.761-.464c-.506-.254-1.14-.38-1.774-.38-.886 0-1.773.38-2.449.929-.676.591-1.225 1.351-1.394 2.238"/><path fill="#ffe550" d="M132.123 40.207a6.8 6.8 0 0 1 1.858-.254h7.18l-.337 1.563h-7.181c-.464 0-.971.042-1.478.17-.465.126-.972.337-1.436.548l-.465-1.351a9.8 9.8 0 0 1 1.859-.676"/><path fill="#00285e" d="M138.796 15.12c-1.225 0-2.028-1.056-1.774-2.28.253-1.226 1.52-2.24 2.745-2.24s2.027 1.014 1.774 2.24c-.253 1.224-1.478 2.28-2.745 2.28m-4.9 0c-1.267 0-2.07-1.056-1.816-2.28.295-1.226 1.52-2.24 2.745-2.24 1.267 0 2.07 1.014 1.774 2.24-.253 1.224-1.478 2.28-2.703 2.28m-4.435 16.344c.591.803 1.521 1.31 2.661 1.394l3.506-1.478 1.52-7.307a3.3 3.3 0 0 0-.76-.464c-.507-.254-1.14-.38-1.774-.38-1.352 0-2.661.549-3.717 1.436-1.056.844-1.858 2.07-2.154 3.379-.253 1.35 0 2.576.718 3.42m-11.488 6.04 1.013-4.604h5.449c-.549-1.436-.676-3.083-.296-4.856.549-2.577 2.112-4.942 4.182-6.674 2.069-1.731 4.646-2.787 7.264-2.787 1.268 0 2.408.253 3.464.76a7 7 0 0 1 2.661 2.027l.507.676-1.647 7.771c-.127.845.042 1.605.464 2.154.465.55 1.183.93 2.07.93l-1.014 4.603c-2.07 0-3.801-.803-4.899-2.112l-5.111 2.112z"/><path fill="#cf3528" d="M154.955 7.602c-.549.465-1.267.76-1.985.76s-1.31-.295-1.69-.76c-.338-.464-.507-1.14-.338-1.858l.423-1.985h1.52l-.422 2.027c-.042.253 0 .55.169.718.127.211.38.296.676.296.295 0 .591-.085.802-.296.211-.169.38-.465.465-.718l.676-3.21h1.605l-.718 3.379a.62.62 0 0 0 .169.55c.126.21.38.337.675.337s.549-.127.803-.338a1.4 1.4 0 0 0 .464-.718V5.49l-.042-.253-.676-1.816 1.521-.76.634 1.816.126.633c.042.212 0 .423-.042.676-.127.718-.591 1.352-1.14 1.816-.549.465-1.268.76-1.986.76s-1.309-.295-1.689-.76m-2.788-7.39A9.7 9.7 0 0 1 154.068 0h7.18l-.338 1.563h-7.18a6 6 0 0 0-1.478.169 6 6 0 0 0-1.436.549l-.507-1.352c.633-.295 1.225-.549 1.858-.718"/><path fill="#00285e" d="M154.816 18.203c-1.267 0-2.07-1.056-1.774-2.28.253-1.226 1.478-2.24 2.703-2.24 1.267 0 2.07 1.015 1.774 2.24-.254 1.224-1.478 2.28-2.703 2.28m-4.942 0c-1.225 0-2.027-1.056-1.774-2.28.253-1.226 1.478-2.24 2.745-2.24 1.225 0 2.028 1.015 1.774 2.24-.253 1.224-1.52 2.28-2.745 2.28m-.422 17.57a12.7 12.7 0 0 1-2.155 1.055c-1.224.465-2.449.718-3.674.718h-1.521l.972-4.646h1.52c.634 0 1.267-.126 1.859-.337.338-.127.633-.296.929-.465l2.154-10.052h4.604l-1.605 7.687c-.211.845 0 1.647.422 2.238.465.55 1.183.93 2.07.93l-1.014 4.603c-1.858 0-3.421-.634-4.561-1.732"/><path fill="#1f1f1f" d="M175.161 11.156c.296 0 .549-.127.802-.296.212-.211.381-.464.465-.76.042-.296 0-.55-.169-.718-.127-.211-.38-.338-.676-.338-.295 0-.549.127-.802.338-.211.169-.38.422-.465.718-.042.296 0 .549.169.76.127.17.38.296.676.296m-.338 1.563h-3.97c-.507 0-.972.042-1.479.168-.506.127-.971.338-1.436.55l-.507-1.352a11 11 0 0 1 1.859-.676 7.4 7.4 0 0 1 1.901-.253h1.605a2.2 2.2 0 0 1 0-1.056c.126-.718.591-1.351 1.14-1.816s1.267-.76 1.985-.76 1.31.295 1.69.76c.38.464.506 1.098.38 1.816-.169.718-.592 1.351-1.141 1.858h-.042a3.1 3.1 0 0 1-1.985.718z"/><path fill="#00285e" d="M171.678 24.665c-.591-.803-1.521-1.31-2.661-1.394l-3.506 1.436-1.562 7.349c.253.169.506.338.802.464q.76.38 1.774.38c1.309 0 2.661-.549 3.717-1.436 1.056-.844 1.858-2.07 2.112-3.42.295-1.31 0-2.535-.676-3.38M155.966 32.9c.887 0 1.774-.38 2.449-.929a4.1 4.1 0 0 0 1.394-2.154l1.69-8.066 7.602-3.168h.465c2.619 0 4.731 1.056 6.082 2.788 1.352 1.731 1.901 4.096 1.352 6.673l-.338 1.689c-.211.845 0 1.647.465 2.238.422.55 1.14.93 2.027.93l-.972 4.603c-2.154 0-3.928-.845-5.068-2.28-.084-.127-.211-.296-.296-.465-2.112 1.731-4.688 2.745-7.307 2.745-1.225 0-2.407-.211-3.421-.718a6.6 6.6 0 0 1-1.732-1.056c-1.605 1.098-3.463 1.774-5.364 1.774h-.971l1.013-4.604z"/><path fill="#cf3528" d="M190.35 5.165c.296 0 .549-.085.803-.296.211-.169.38-.465.464-.718.043-.296 0-.591-.169-.76-.126-.211-.38-.296-.675-.296s-.55.085-.803.296c-.211.169-.38.464-.465.76-.042.253 0 .55.169.718.127.211.381.296.676.296m1.647.802c-.549.465-1.267.76-1.985.76s-1.309-.295-1.689-.76c-.338-.464-.507-1.14-.338-1.858.127-.718.549-1.352 1.14-1.816.549-.465 1.267-.76 1.985-.76s1.31.295 1.69.76c.338.464.507 1.14.338 1.816-.127.718-.549 1.394-1.141 1.858"/><path fill="#4888ff" d="M197.747 40.207a6.8 6.8 0 0 1 1.859-.254h7.18l-.338 1.563h-7.18c-.465 0-.972.042-1.478.17-.465.126-.972.337-1.437.548l-.464-1.351c.591-.296 1.225-.507 1.858-.676"/><path fill="#00285e" d="M191.669 37.504h-.042c-2.576 0-4.688-1.056-6.04-2.745-.169.169-.338.337-.549.464-1.689 1.436-3.843 2.28-5.998 2.28h-.929l.972-4.603h.929c.887 0 1.774-.38 2.45-.929a4.3 4.3 0 0 0 1.436-2.238l4.012-19.09h4.646l-3.674 17.4c-.296 1.352 0 2.577.676 3.421.675.887 1.774 1.436 3.083 1.436a5.1 5.1 0 0 0 1.943-.38 11 11 0 0 0 1.013-.464l4.52-21.413h4.646l-4.984 23.44-.803.676a12.4 12.4 0 0 1-3.547 2.027c-1.225.465-2.535.718-3.76.718m30.592-26.819-4.392 20.695 2.914 1.52h.465l-.972 4.604h-1.478l-6.209-3.168 5.026-23.65z"/><path fill="#4888ff" d="M229.062 7.68a7.3 7.3 0 0 1 1.858-.253h7.181l-.338 1.563h-7.18c-.465 0-.972.042-1.479.169-.464.126-.971.338-1.436.549l-.464-1.352a10 10 0 0 1 1.858-.675"/><path fill="#00285e" d="M230.784 18.16c-1.225 0-2.027-1.013-1.774-2.238.254-1.267 1.478-2.28 2.746-2.28 1.224 0 2.027 1.013 1.774 2.28-.296 1.225-1.521 2.239-2.746 2.239m-3.21 17.612a12.7 12.7 0 0 1-2.154 1.056c-1.225.465-2.45.718-3.675.718h-1.52l.971-4.646h1.521c.633 0 1.267-.126 1.858-.337.338-.127.634-.296.929-.465l2.155-10.052h4.603l-1.605 7.687c-.211.845 0 1.647.423 2.238.464.55 1.182.93 2.069.93l-1.013 4.603c-1.859 0-3.421-.634-4.562-1.732"/><path fill="#cf3528" d="M244.467 5.919c.295 0 .549-.085.802-.296.211-.169.38-.464.465-.718.042-.295 0-.591-.169-.76-.127-.211-.38-.296-.676-.296s-.549.085-.802.296c-.212.169-.381.465-.465.76-.042.254 0 .55.169.718.127.211.38.296.676.296m1.647.802c-.549.465-1.267.76-1.985.76s-1.31-.295-1.69-.76c-.338-.464-.506-1.14-.338-1.858.127-.718.55-1.352 1.141-1.816.549-.465 1.267-.76 1.985-.76s1.309.295 1.69.76c.337.464.506 1.14.337 1.816-.126.718-.549 1.394-1.14 1.858"/><path fill="#00285e" d="M239.072 35.266c-1.732 1.393-3.843 2.238-5.997 2.238h-.93l.972-4.604h.971c.887 0 1.732-.38 2.45-.929.676-.549 1.183-1.351 1.352-2.196l4.097-19.09h4.603l-4.012 19.048c-.211.845 0 1.647.422 2.238.465.55 1.183.93 2.07.93l-1.014 4.603c-2.112 0-3.886-.845-4.984-2.238m14.408-23.814a7.3 7.3 0 0 1 1.859-.254h7.18l-.338 1.563h-7.18c-.465 0-.971.042-1.478.169-.465.126-.972.338-1.436.549l-.465-1.352a10 10 0 0 1 1.858-.676m5.411 21.323c1.521-.254 2.957-.972 4.182-1.985 1.52-1.267 2.703-3.041 3.125-4.984.085-.38.127-.676.127-.93.042-.084.042-.168.042-.253l-1.056-1.14-8.954 2.28zm-14.825 4.73 1.014-4.604h8.531l-2.956-8.066 1.689-2.577 15.206-3.885 3.463 3.674.085.718c0 .465 0 .972-.043 1.478a17 17 0 0 1-.211 1.563c-.591 2.66-1.985 5.11-3.928 7.095h5.956l-.972 4.604z"/><path fill="#cf3528" d="M286.704 11.198c.296 0 .549-.084.803-.296.211-.168.38-.464.464-.717.042-.296 0-.592-.169-.76-.126-.212-.38-.296-.676-.296-.295 0-.549.084-.802.295-.211.17-.38.465-.465.76-.042.254 0 .55.169.718.127.212.38.296.676.296m1.647.803c-.549.464-1.267.76-1.985.76s-1.309-.296-1.689-.76c-.338-.465-.507-1.14-.338-1.859.127-.718.549-1.351 1.14-1.816.549-.464 1.267-.76 1.985-.76s1.31.296 1.69.76c.338.465.507 1.14.338 1.816-.127.718-.549 1.394-1.141 1.859"/><path fill="#00285e" d="M272.838 32.9h14.107c-.549-.76-1.098-1.52-1.52-2.365-1.225-2.196-2.028-4.645-2.408-7.306h-4.224l.972-4.646h7.729l.127 1.732c.127 2.745.845 5.237 2.07 7.433s2.914 4.054 5.068 5.448l-2.069 4.308h-20.823zm7.941 13.558c-1.225 0-2.028-1.056-1.774-2.281.295-1.225 1.52-2.239 2.745-2.239 1.267 0 2.027 1.014 1.774 2.239s-1.478 2.28-2.745 2.28m23.168-35.772h4.646l-4.646 21.793a8 8 0 0 0-.169 2.196c.042.718.169 1.436.423 2.07l-4.52 2.323c-.338-1.014-.591-2.07-.633-3.168q-.064-1.71.253-3.421z"/><path fill="#ffaa48" d="M320.961 11.452a7.3 7.3 0 0 1 1.859-.254H330l-.338 1.563h-7.18c-.465 0-.972.042-1.479.169-.464.126-.971.338-1.436.549l-.464-1.352a10 10 0 0 1 1.858-.676"/><path fill="#00285e" d="m328.538 22.046-2.323 10.981c-.507 2.45-1.52 4.857-2.914 7.095-1.436 2.239-3.21 4.308-5.322 6.04l-2.577-3.294c1.605-1.31 2.957-2.83 3.971-4.52.211-.253.338-.548.507-.844h-1.986c-2.618 0-4.772-1.056-6.124-2.745-1.352-1.732-1.901-4.097-1.352-6.715.592-2.577 2.154-4.942 4.224-6.674 2.07-1.731 4.646-2.787 7.265-2.787 1.267 0 2.407.253 3.463.76a7 7 0 0 1 2.661 2.027zM318.866 32.9h2.745l1.859-8.827a3.3 3.3 0 0 0-.761-.464c-.506-.254-1.14-.38-1.774-.38-1.351 0-2.66.549-3.716 1.436-1.056.844-1.859 2.07-2.155 3.379-.253 1.35 0 2.576.719 3.42.675.887 1.773 1.436 3.083 1.436"/></svg>